<?xml version="1.0"?>
<svg version="1.1" xmlns="http://www.w3.org/2000/svg" viewBox="0 0 386 386">
  <path style="fill:#aaabab;" d="M334,14.71v356.58c0,8.12-6.59,14.71-14.71,14.71H66.71C58.58,386,52,379.41,52,371.29V14.71
        C52,6.59,58.58,0,66.71,0h60.43v27H79v332h160.12L307,291.12V27h-48.15V0h60.44C327.41,0,334,6.59,334,14.71z"/>
  <path style="fill:#E6E6E6;" d="M307,27v264.12h-67.88V359H79V27h48.14v10.13c0,9.25,7.5,16.75,16.75,16.75h98.22
        c9.24,0,16.74-7.5,16.74-16.75V27C258.85,27,307,27,307,27z"/>
  <polygon style="fill:#CCCCCC;" points="307,291.12 239.12,359 239.12,291.12"/>
  <path style="fill:#F7CF52;" d="M258.85,27v10.13c0,9.25-7.5,16.75-16.74,16.75h-98.22c-9.25,0-16.75-7.5-16.75-16.75V27V0h131.71 V27z"/>
</svg>
